/* XPM */
static char *_6e3b86789b94f9fc35969ab1f3f0818MB39iplr0DyjNo30[] = {
/* columns rows colors chars-per-pixel */
"64 64 226 2 ",
"   c #062A7B",
".  c #273E7B",
"X  c #29417F",
"o  c #0B3281",
"O  c #163B86",
"+  c #1D438B",
"@  c #2A4486",
"#  c #25448B",
"$  c #2A468C",
"%  c #2C498C",
"&  c #274789",
"*  c #324D8E",
"=  c #314886",
"-  c #244394",
";  c #2A4790",
":  c #2C4B93",
">  c #2C4C9B",
",  c #274799",
"<  c #324E93",
"1  c #324F98",
"2  c #2E509C",
"3  c #355195",
"4  c #3B5494",
"5  c #34539C",
"6  c #3A569C",
"7  c #36599C",
"8  c #3D5A9C",
"9  c #345897",
"0  c #39508F",
"q  c #3D609B",
"w  c #2F4FA1",
"e  c #2F51A2",
"r  c #3454A2",
"t  c #3A57A1",
"y  c #3D5BA3",
"u  c #3E5EAB",
"i  c #3458A3",
"p  c #3B5FB2",
"a  c #3E61A5",
"s  c #425C9D",
"d  c #425897",
"f  c #48609F",
"g  c #47649D",
"h  c #425EA4",
"j  c #415FA9",
"k  c #4561A5",
"l  c #4A63A5",
"z  c #4562AB",
"x  c #4A66AC",
"c  c #466AAC",
"v  c #4D69AD",
"b  c #4A6AA4",
"n  c #526AA6",
"m  c #536BAC",
"M  c #586EAC",
"N  c #5167A7",
"B  c #4E70AF",
"V  c #5671AA",
"C  c #5A71AE",
"Z  c #5878AF",
"A  c #4465B2",
"S  c #4967B1",
"D  c #4D6AB3",
"F  c #4C6DBB",
"G  c #4568B7",
"H  c #526EB4",
"J  c #526FB9",
"K  c #586FB0",
"L  c #4E71B4",
"P  c #4D70BC",
"I  c #5571B5",
"U  c #5B73B4",
"Y  c #5D79B5",
"T  c #5572BA",
"R  c #5A76BB",
"E  c #5679BC",
"W  c #5D7ABC",
"Q  c #5378B6",
"!  c #6179AC",
"~  c #6077B5",
"^  c #627BB5",
"/  c #637CBC",
"(  c #687DBA",
")  c #5474C4",
"_  c #5A77C0",
"`  c #5678C5",
"'  c #5D7BC2",
"]  c #5C7DC9",
"[  c #4F72C2",
"{  c #627EC3",
"}  c #627FC8",
"|  c #5E81BD",
" . c #6481BC",
".. c #6A82BE",
"X. c #7588BA",
"o. c #5E80C2",
"O. c #5F80C8",
"+. c #6582C4",
"@. c #6A84C4",
"#. c #6688C5",
"$. c #6C8AC6",
"%. c #6583CA",
"&. c #6A86CA",
"*. c #6788C9",
"=. c #6D8ACB",
"-. c #728BC4",
";. c #728DCD",
":. c #798FC6",
">. c #6E90CE",
",. c #7C92C4",
"<. c #7592CE",
"1. c #7B94CC",
"2. c #7E9ACE",
"3. c #7791C4",
"4. c #6D8BD2",
"5. c #6B8AD4",
"6. c #728ED1",
"7. c #718FD8",
"8. c #7592D3",
"9. c #7A95D4",
"0. c #7C9AD5",
"q. c #7594D9",
"w. c #7997D9",
"e. c #7798DA",
"r. c #7D9ADB",
"t. c #7799D7",
"y. c #7FA0DA",
"u. c #7E9DE2",
"i. c #8894BE",
"p. c #8395C3",
"a. c #849ACB",
"s. c #8A9CCA",
"d. c #8899C5",
"f. c #919FCA",
"g. c #819CD4",
"h. c #829DDC",
"j. c #899FD1",
"k. c #9BA5CB",
"l. c #95A2CB",
"z. c #8CA3D4",
"x. c #84A2DC",
"c. c #89A5DC",
"v. c #88A6DB",
"b. c #93A5D3",
"n. c #94ACDD",
"m. c #9BAEDC",
"M. c #99A8D3",
"N. c #A7AACD",
"B. c #A2ACD3",
"V. c #A8AFD2",
"C. c #ADB2D5",
"Z. c #A4B4DD",
"A. c #ACB5DC",
"S. c #A4B0D7",
"D. c #B2B9DE",
"F. c #B7B8D8",
"G. c #829FE2",
"H. c #84A3E3",
"J. c #89A6E3",
"K. c #8CAAE5",
"L. c #85A5EA",
"P. c #88A6EA",
"I. c #8BABEB",
"U. c #92ADE3",
"Y. c #92AFEB",
"T. c #9CAEE2",
"R. c #8FB0EE",
"E. c #95B2E6",
"W. c #9AB5E5",
"Q. c #94B2EB",
"!. c #99B6EC",
"~. c #9DB9EC",
"^. c #94B3F1",
"/. c #99B7F1",
"(. c #9DBCF3",
"). c #99B9F7",
"_. c #ABBAE4",
"`. c #A2BDED",
"'. c #A7B8E4",
"]. c #B6BEE4",
"[. c #A1BEF3",
"{. c #A0BFF8",
"}. c #C1BFDB",
"|. c #BEC0DE",
" X c #A8C2ED",
".X c #B3C3EC",
"XX c #B9C4EC",
"oX c #BDCBEE",
"OX c #BAC2E7",
"+X c #A5C3F4",
"@X c #ABC6F2",
"#X c #ACCAF6",
"$X c #A3C3FA",
"%X c #ACCAFA",
"&X c #A8C6F9",
"*X c #B3CCF4",
"=X c #BBCBF2",
"-X c #B2CEFA",
";X c #B4C5F1",
":X c #B6D2F6",
">X c #BCD4F7",
",X c #BAD5FB",
"<X c #BEDAFA",
"1X c #B3D2FB",
"2X c #C4C2DD",
"3X c #C9C6DF",
"4X c #C3C5E4",
"5X c #CACBE7",
"6X c #D1CEEA",
"7X c #CFD0EF",
"8X c #D7D3EC",
"9X c #CAD6F9",
"0X c #C2DDFC",
"qX c #C8D8F7",
"wX c #DCDAF3",
"eX c #D2D6F4",
"rX c #C5CFF5",
"tX c #E4DDF2",
"yX c #C5E2FE",
"uX c #C8E4FE",
"iX c #CBE8FF",
"pX c #DEE4F9",
"aX c #D1E2FD",
"sX c #E8E9FB",
"dX c #FDFBFE",
"fX c #F3F4FD",
/* pixels */
"L.+XQ.' 6 6 { { +.&.U H 6 S H 5 J j R 9.~ ~ 6.j.0X[.K.c.<.g.$.c 5 5 4 N 8 * W 0.E.:X8.D K.K.O.y.e.[ e w > - S <X+X).!.} ] ] 7.u.",
"/.r.[ I s v R R r.h./ l v R h S x x h.$.n @.g.[.0XG.g.c.9.^ W l & $ < 9 % s 9.x.<X:Xo.#.!.>.t.K.O.a e , $ 6 r.E.x.%XE.K H ] 7.u.",
"' S 7.I s l m r./.;.~ M U l N U ( q.;.^ ( h.`.0XW./ ..h.;.M ^ d . @ 4 * % / J.E.#XK.+.c.#.#.K.E._ 2 i : * &.6.{ K.[.@.h H %.e.r.",
"j +.;.l d h ;.^.w.-.( U n s n ( :.@.~ @.j.-X,XK.@.U j.<.( n h d X 4 d @ s r.U.Q.%Xx.$.$.#.t.v...1 y h & H 6.m h.%X@.j s @.6.%.E ",
"U %.H 8 8 -.[.J.@.H.<.C s l ( ( M N @.0.<X0X!.&.N g.J./ U d 4 3 % d d 0 $.w.;.Q.*X} m R W 8.R ; 5 I < 2 } m &./.{ k < H 7.+._ R ",
"{ { s s U !.Y.$.g.U.h.s f C U k 0 U g.`.<XY.<.M M $.@.h.M 4 0 0 s s d / 8./ q.&X<.m z j H R 5 y R y : D H { r.R z 3 3 { +.{ ;.H ",
"%.W 6 v w.^.w.9.w.Y.;.l f n l * b h.x.yX&X@.U U ~ / &.;.l 4 4 l m N -.h.m } %Xg.v 6 y y S z D T D : 7 v W @.H v 6 % v { R w.} H ",
"{ y 8 W K.J.&.9.h.J.I 9 3 8 * * ;.K.!.+XJ.U M { ;.&.q.N 8 x b h H j.Y./ / Y.;.x 6 k v F y W R S 1 : D T J j z y ; y T D w.6.D I ",
"j 6 k 9.J.+.=.K.J.w.4 % 4 < @ v G.J.Q.1X9.m N ;.} 6.} 6 m / l K G.!.-.9.w.{ v 6 < I &.E T R D 2 # H } T j h S 5 5 J j &.u.J J { ",
"y k R E.=.&.Q.J.Y.H $ 6 5 @ 8 <.6.&.(.~.~ h ~ 6.<.h.N m ;.U H J.[.9.;.g./ v j $ 6 { W =.o.o.r : J _ @.S 5 H S t T y +.G.{ D } x ",
"h x t.K.E.Q.x.H.;.< < s < % +.$.K U.(.&.m x 6.q.6.( x g.{ n 9.!.].h.} C N z 3 < I R / { %.%.j E h.%.} t { T j J y T r.8.H l T m ",
"R =.x.H.+X+X;.8.h : y z @ j ;.v w.[.;.{ m ' ;.&.} m / ;.M ( h.[.9Xn.( ( m M N l U M @.#.E ' E H.H.q.J H G._ H x R 7.w.6.h H @.H ",
"w.G.;.w.&Xg.&.H : 6 H 1 1 R x R H.} @.R R } { { { T } ( ( r.`.1X+X@.~ @.M U s n ~ <.6.W m *.v.K.9.8.n =.h.{ N ~ 9.<.;.R K h.~ / ",
"h.q.6.[.c.H z x D { H 5 h h y { R &.=.H R &.x H R { @.{ g.*X0XU.@.M h.<.^ l s ~ ..@./ ~ <.W.,X!.=.I ..J.{ / N } 6.&.{ N &.&.R } ",
"6.+.H.!.m 5 j &.8.=.H z : 1 I H &.r.R v } H t R H { 6.9.*X0X(.<.m -.U.( M s M ( U s C :.J.uX%XJ.^ v x.9.{ M H 6.{ } R R } { / 6.",
"=.} K.{ < 3 H w.r.R x t ; x D J H.} x } J t S S T 5.w.W.0XQ.9.U n { } h.U h U m d 4 ;.h.>X*Xx.@.M C / ;.h.h { / &.;.K { } H } G.",
"&.7.H.z < x *.r.} v J t v S S u.4.S } T t j x _ } 7.H.,X-X;.U U / / $.<.m d x d * / x.Y.0XY.~ U U @./ 9./ U T { r._ D %.T j { { ",
"4.G.%.t I <.u.{ j H j j S h w.6.S J J j v t S } %.u.Y.+XE.W M R ;.@.w.H < 3 3 @ 8 h.Y.~.&X9.H m *.=.;.$.H D D H.&.x ' R 5 H H H ",
"G.w.S %.9.r.R z R S z H h 5.&.x H J j A y j T } 5.w.I.-Xx.H l @.&.;.;.6 < 6 $ $ +.x.h.).*X+.N m 6.+.9.{ D z w.8.D ' _ t j v J } ",
"@X&.H &.h.;.x U h < h d h / h j S y j t S H } } q.P./.[.t.U U 8.;.h.U 0 6 < @ H w.@.8.+Xh.m h ;.8.w.=.H t q.w.S J _ j z j H q.U.",
"K. .M 9.8...n l d . 0 4 = * < 3 5 5 r A A J { u.^.Y.$XP.7.J / { h.@.d 6 4 $ 6 a.~ { [.E.K d R 6.w.;.l 6 %.5.v S T y S h j 6.#X0X",
";.N <.c./ / d 8 4 = s d 0 * 6 4 > > h k F 7.R.^.P.{.{.6.T R ( @.q.K s s % % } } v H.#X$.h x &.<.h.{ h &.&.j x { H z y z 9.=X0X(.",
"C M 9.;.9.N 4 * * s s d f l 8 h y 6 s H u.R.R.J.^./.;.H U ;.} 9.~ 4 h 6 # H 8.H h.-X;.h 8 { 8.6.&.v } w.N h M R x < m 6.~.0X!.9.",
"M U U ;.w.l 4 4 x N l m R b 4 v 6 4 s } Y.J.H.P.&XU.H l { $.;.<.h h U ; 4 &.H { {.<.h 4 H 6.;.+./ m ;.~ x l K l < l w.J.uX[.$.~ ",
"{ &.$.w.m s h l x l / @.~ 0 h h 3 9 v 0.Y.q.@.K.#X$.h M <.6.h.{ h @.j ; H H / H.{ z 3 3 +.;.{ &.I +.%.m 6 3 8 * 4 ;.J.~.%Xv.I K ",
";.+.;.@.d l H l N +.8.=.h < 8 : 3 8 ..E.{ U w.#X;.x s } w.6.} N @.8.6 h H R &.R D 6 : z +.R 6.%.H %._ 3 * 4 < @ N x.Y./.%X;.H m ",
";.;.r.M h @.R m &.w.8./ K h : % 3 l t. .h @.{.<.j 3 U 6.$.&.R m ;.{ H x J { S x h $ 6 R H 4.q.H H &.k % 3 6 @ 6 8.w.6.[.`.~ l U ",
"9.q.{ x 9.&.K ;.h.w.+.8.&.3 # : 7 ' R y { J.} z 3 3 { ;.{ &.H } } / { _ T j y x 5 > H z { H.R x %.S 5 5 s * * { 6.~ J.+X@.h v ;.",
";.} m R 6./ W r.h.;.r.I.D # : 1 D R 5 D 6.R v 6 ; x { R 6.} H &.{ S / } H 5 D S 6 J z _ r.&.H { S t z z h # x 6.x w.+X&.h 8 / 6.",
"{ / H +.R R =.t.%.6.@X!.k 5 : 7 H : 6 I H x j ; t R H 8.q.H H %.h z } ) 5 J J t F z s &.@.h.U k h j h J 1 1 W H &.I.{ k < x 6.@.",
"6.R I <.9.+.v.*.;.*X[.r.o.c : k t : z z y z 1 1 T j } G.U S %.z t H D J ' 7.D J D y R / ;.8.x 4 6 x S h 1 x D / 9.I x 3 : R { R ",
"&.D W <.D #.*.E U.qX X=XK.o.S +.x.W c r H S 5 T h { G.{ S &.x t x S { %.J.r.' H m / ;.@.w.m d l x b l I R c W { D x t $ h R R w.",
"L L t.Q 7 | | >.E.=XdXfX@X+.&.@X@X~.R R T y D z D G.} z _ S y j j ' } q./.!.{ K m ;.@.6.&.s x ~ z U &.q.=.T T h j y < 6 J j q.w.",
"T o.>.a , B | 0.x.oXdXdXeX#.U. X<X*X>.%.D L D A q.T H _ H 5 H z S ' } G.L.&.R { R ;.=.h.K x &./ R G.w.;.' ' x t c l v J j =.G.R ",
"' E o.7 + i $.0.2.rXdXdXoXv.*XoXpX`.t.%.E F J 4.5._ } T 5 H F y T ] w.u.T S _ J 6.q.6.{ R w.q.} G.G.w./ %.H 5 L &.W T y _ G.R j ",
"a Z Q a   > -.2.3.oXdXfXoX>X9XsXsX`.t.9.T } ' %.x.4.%.j _ %.z D T 6.7.J A T x R =.&./ _ w.J.w.u.r.6.6.&.*.z +.q.&.H j H r.J j ' ",
"G W Q O 5  .2.$.1.XXeXqXsXoXpXpX=X`.z.=.L W o.q.P.t.T z L.4.I J ' q.J S H j j z D R _ *.*XW.*.+.&.6.9.#.I +.r.*.R E 8.q.5.z _ 4.",
"W m.c   z.z.| #.$.1.OXqXz.g.fX.X`.v.v.W E +.x.Q.0.%.5 8.!.%.T O.R _ F a r r r y S F _ 7.qXv.c I g.Q.<.Q W *.I I *.t.J.y.T j P.q.",
"m._.o : a.z.z.Z.z.n.m.3.c A.z.2.m..Xx.L +.#.E.!.%.5 u ~.+.) e.E T A > > r , u S u ] q./.Q.#.Q y.+X+.I B v c W %.r.+Xt.' 2 =.!.=.",
"].Q + 3.s.7XsXD.S.n.B 7 Q  .a | m.W.L E E t.`.H.J e *.q.r q.r.) D - - r , y J S 5.L.).G.%.#.<.E.%.a k i t c o.o.c.Q.*.r i Q.+.E ",
"9.i  .l.4XwXwXA.z.| 9 a Z + 1 Z 1.c 7 L z .XqX9.] D r.D D H.u.O.- - w , i 7.%.5.P.I.u.5.0.<.y.<.c 7 5 1 5 L L <. XJ.I 3 R 4.z %.",
"8. .Z l.C.6X6XC.OXX.9 9 7   O 1...: : a L qX;Xr.E *.J.' *.e.u.a , , w - t.$XP.P.u.%.` L.v.$.x.o.t : 1 5 : l Q n.>Xt.L v $.W R 8.",
"8.W 9 X.V.6XB.8X8Xd.9 + + o 9 Z.3.7 + I -.9X;Xy.c x.Q.>.e.e._ i w , , a *X@X).!.+.I ' 8.W t.h.m k z 7 z z I ;..X>XE c #.w.H E q.",
"+.Y Z k.4XB.l.C.M.,.g + # B a.M...c B 2.z.rXn.#.E E.>.t.I.>.p e i e u w.I.J.-XT.H l { &.;.0.v l W v a v ..>.`.0Xg.U W  X<.k R W ",
"} a.M.F.C.X. .g d.Z  .Z 7 M.8XS.a.1.Z.z.m.n.0. .x.#.o.x.~.=.2 G F p &.9.{ K.@X&.l H <.<.G./ h { +.m v W 0.@XyX`.#.N 0.v.W ;.-.U ",
"g.#X-XT.X.n g n q 9 g d.d.2XsX6XS.D.Z.3.OX'.2.<.=.%.0.x.a.h &.;.H =.w.H h.%X$.j h @.w.;.{ N ~ { N s ^ 0.Q.yX~.9.U M 9.;.9.-.( / ",
">X0X!.@.M ,.k.i.q + q f.F.C.|.8X4XA.X.Z.eXA.v.1.*.#.+.@.m R w.U W G.R @./.;.h 6 H ;.$.} H h U N 3 s 9.c.yX X;.W M U U <.9.C ( c.",
"0X/.<.M W v.s.i.& & ! k.k.X.5X8X|.s.M.wXOXOX X>.#.W ' } m } } / +.8.=.G.{ z < 4 } &.{ &.h d h 4 0 =.J.~.:Xh.U V / =.;.8.N / w.`.",
"Q.;.~ N M / X.V & Z k.3XN.k.wX3XC.b.7XwXXXeX_.n.z.%.*.R ' +.R _ w.8.+.R v 5 : c { R 6.{ 3 4 3 $ n J.Q.~.&X;.M N 4.&.6.{ K w.E.uX",
"6.U M s M @.U M g i.F.2XC.D.tX6Xz.2.fXoX.XOX].Z.1.=.*.H ' } J q.q.] J S h : t R H w.6.S 6 4 @ 3 ;.r.t.$X XR l U <.;.q.U ;.h.@X*X",
"T M s l / U s 4 $.z.4X2Xl.S.k.z.B m.Z.1.A.F.k.i.d...I S ) F G F G [ A j 1 1 H j %.G.T v z % % / q./ G.[.;.h x ;.8.6.{ v *./.P.O.",
"R x b ~ 1.M * W h.E.qXd.X.8 b a B -.a | l.F.X.N.i.^ m A G [ ` ) ) [ [ D t J u { G.' D %.h & z <.m <.I.{ l 5 m ;.&.@.U R x.=.) ` ",
"A m M ..g.~ N a.K.:X@X:.V b q y Z : : V F.2Xi.N.X.g x ` e.P.u.u.u.(.u.P D h H G.' A ' S : < { T / 8.R z 1 < R { / 4./ } ' F [ G ",
"m / ( 9.:.! @.h.+X9XU.~ ..a.Q z a   O  .}.C.p.d.g 9 w.L.H.q.w.Q.{.r.W ] D D 7.H j T x 1 1 k H R { D x 6 $ z W T w.&.R &._ G p j ",
"{ w.w.@./ ( h.-X-XK...U x.=.F : & O : b.F.X.;.@.U &.r.-.%.h.`.,XQ./ ..<./ 6.x s v j t N l H T J j j j ; 6 T z q.q.D T } t j p S ",
"7.H.} U ( J.qX0XY.{ n K.<.R z = 8 z W n.@./ &.{ W ;.$./ 0.@XuX:X6.( g.0.8./ 8 N H d N x I ' R x t H t 6 J h =.u.T T } j j z H } ",
"u.q.&.r.w.@XqXY.:.n ~ w.;.&.8 s W  .=.o.v +.%.I %.G.;.;.+XuX[.g.M -.h.q.q.l m &.U x h H T &.F 7 J H t J t } G.T x _ z z y z %.} ",
"w.r.L.w.W.uXY.&.~ H R ^ 0.;.x ' >.t.' l H &.R h { %.=.U.yX~.8.U ( Y.( ;./ N h.{ U m U ;.} } t ' _ j J j J 9.J j T z z z y T { 5.",
"L.G.t.J.+X#X<.U U +.@.;.=.T I y.E.=.R v _ ' t D H J =.+X,X0.U n <.9.&.&.x { ;.R T / w.r.q.x J P.' T D ' 7.J S H j u y u F _ %.5.",
"L.5.H.Q.(.+X( K M 6.+.8.{ G x.`.+.I c c H y j S H } H.(.~.+.m C ~ @.H.~ R } / / U ;.G.w.+.r r.I._ T ' } _ D j r r r u S H ' 5.I.",
"%.L.H.w.%XU.m h { ;.9.6.S _ H.+.z h y k k h h H %.%.H.-X~.I b R 8.8.&.I U ~ 6.@.R ;.8.o., T [.] ] 4.T J S 2 2 2 > j A A } u.^.P.",
"P.G._ Q.!./ h K 9.8.8.R m %.T c y < 8 M M W { / R 8.T.aX1.c v x.E.=.I N K @.:.{ U ;.;.S 2 r.;.t H.5.E A - , r , u ) G 5.P.).u.5.",
"7.} G.(./ h h @.8.;.{ m H x z h : 1 U U ..9.@.^ ;.W.9XW. .E v.(.o.I x n { U N K $.<.>.T T r.u ' L.q.) - - w , p 7.5.7.L.P.q.5.G.",
"7.I.(.u.h 3 R <.{ } R v x j z r 1 D S ( 9...~ ;. XyX@Xt.#.t.~.| a k h U C d d @.c.~.t.L t.8.D 8.q.w.r - > w - x.{.P.L.u.} ] u.5."
};
