/* XPM */
static char *_f57be93428c4529873b6d3c424b449ceepZwLXJFnZjNssR[] = {
/* columns rows colors chars-per-pixel */
"64 64 201 2 ",
"   c #3F1D0C",
".  c #401D07",
"X  c #4E260B",
"o  c #4D2A0F",
"O  c #462108",
"+  c #542B0E",
"@  c #592D0F",
"#  c #5F300E",
"$  c #472614",
"%  c #4D2912",
"&  c #472B1A",
"*  c #4B2D1A",
"=  c #42271A",
"-  c #542D12",
";  c #5A2F11",
":  c #522D1A",
">  c #4F301D",
",  c #563114",
"<  c #5C3215",
"1  c #53321E",
"2  c #5B351D",
"3  c #5C3B1E",
"4  c #633614",
"5  c #693717",
"6  c #653917",
"7  c #6B3916",
"8  c #623619",
"9  c #653B1A",
"0  c #6B3D1B",
"q  c #723E16",
"w  c #723E1A",
"e  c #553422",
"r  c #5B3621",
"t  c #5D3A24",
"y  c #5B3A27",
"u  c #633B24",
"i  c #6A3E25",
"p  c #653E2A",
"a  c #673A24",
"s  c #6D411D",
"d  c #73431D",
"f  c #79441D",
"g  c #7A4A1F",
"h  c #654124",
"j  c #6D4224",
"k  c #65422B",
"l  c #6C432B",
"z  c #6F4A2F",
"x  c #734522",
"c  c #7B4620",
"v  c #754925",
"b  c #7B4C25",
"n  c #73462B",
"m  c #754B2B",
"M  c #7C4E2A",
"N  c #7D512C",
"B  c #6E4931",
"V  c #754E31",
"C  c #7B4E33",
"Z  c #765133",
"A  c #7C5333",
"S  c #7D5638",
"D  c #765138",
"F  c #814D25",
"G  c #814F29",
"H  c #835125",
"J  c #84532C",
"K  c #89552D",
"L  c #8B592E",
"P  c #86582D",
"I  c #915B2E",
"U  c #814F32",
"Y  c #845532",
"T  c #895632",
"R  c #855934",
"E  c #8B5B33",
"W  c #855B3A",
"Q  c #8B5E39",
"!  c #925D34",
"~  c #915F39",
"^  c #8E6036",
"/  c #8D613C",
"(  c #946136",
")  c #996335",
"_  c #94643A",
"`  c #99653A",
"'  c #96683E",
"]  c #9B6A3D",
"[  c #A16C3A",
"{  c #835E45",
"}  c #846147",
"|  c #8C6441",
" . c #8F6847",
".. c #856248",
"X. c #8C6549",
"o. c #8F684E",
"O. c #916641",
"+. c #966A43",
"@. c #9C6D43",
"#. c #946D4C",
"$. c #996F4B",
"%. c #9D7146",
"&. c #9C714A",
"*. c #947051",
"=. c #9E7653",
"-. c #A37345",
";. c #A2744B",
":. c #A8784B",
">. c #A47A53",
",. c #AB7D53",
"<. c #A47E5B",
"1. c #A07551",
"2. c #AE8054",
"3. c #AC835B",
"4. c #B18457",
"5. c #B2845A",
"6. c #B58962",
"7. c #BC946C",
"8. c #B69066",
"9. c #BD9771",
"0. c #BD9972",
"q. c #BD9D79",
"w. c #C09162",
"e. c #C39C6F",
"r. c #C49E74",
"t. c #CBA176",
"y. c #C5A37B",
"u. c #CBA47A",
"i. c #CBA67B",
"p. c #DAAC78",
"a. c #DEB27C",
"s. c #E3B57E",
"d. c #CCAB83",
"f. c #CDAE88",
"g. c #D2AE83",
"h. c #DAAF80",
"j. c #DDB486",
"k. c #DFB887",
"l. c #D5B48C",
"z. c #DBB68A",
"x. c #DDB98B",
"c. c #D1B087",
"v. c #DCBB93",
"b. c #DDBF99",
"n. c #E4B781",
"m. c #E5BA85",
"M. c #E6BD8A",
"N. c #E8BE8C",
"B. c #E8BC87",
"V. c #E2BF94",
"C. c #E8BF90",
"Z. c #DFC29D",
"A. c #E7C08E",
"S. c #EAC18E",
"D. c #F0C58E",
"F. c #E6C293",
"G. c #EBC493",
"H. c #EEC896",
"J. c #E5C49B",
"K. c #EAC69A",
"L. c #EDCA9C",
"P. c #F1C793",
"I. c #F1C995",
"U. c #F0CD9E",
"Y. c #F1CC9C",
"T. c #F6D19E",
"R. c #F9D29E",
"E. c #DEC3A0",
"W. c #E5C6A1",
"Q. c #E8C7A0",
"!. c #E5C9A5",
"~. c #EFCEA0",
"^. c #EECDA1",
"/. c #EECFA5",
"(. c #EECEA3",
"). c #E5CCA8",
"_. c #ECCFA9",
"`. c #F0CFA1",
"'. c #F0CFA2",
"]. c #F0CFA6",
"[. c #F0CFA2",
"{. c #EFD0A5",
"}. c #EFD1AA",
"|. c #F1D0A3",
" X c #F1D0A6",
".X c #F2D1A5",
"XX c #F2D1A4",
"oX c #F9D5A2",
"OX c #F8D4A3",
"+X c #F1D1A8",
"@X c #F1D2A9",
"#X c #F2D5AE",
"$X c #F1D3AB",
"%X c #F9DAAC",
"&X c #FBDAAB",
"*X c #F2D7B1",
"=X c #F4D9B3",
"-X c #FBDDB6",
";X c #F3DAB8",
":X c #FBDFB9",
">X c #FBE0BA",
/* pixels */
"].$X/.+X+X+X+X+X#X+X+X$X+X#X#X`.3.2.2.2.4.2.2.2.2.2.2.2.2.3.2.2.v.XXA.{.~.F.{.L.U.{.L.L.~.~.!.~.5.Z z k y e e e > 1 y r r y y l ",
"+X{.+X+X+X[.+X+X+X+X].+X+X.X+X`.2.+.+.$.%.%.&.&.%.%.+.+.+.+.%.| l.T.G.{.G.L.{.{.H.U.L.U.H.L.L.oX3.& y 1 * & e e > > * * & * & = ",
"|.{.+X(.[.+X+X[.].+X+X+X`.].+XY.$./ O.| / / / | / / / / / ' +.} l.U.~.U.H.~.H.{.U.~.U.U.H.U.H.oX=.> h k a e e u e r u 2 e p l l ",
"Y.L.'.^.^.[.`.^.^.[.[.[.`.`.].`./ S / S Z V z D A A W W W W / S g.OX{.Y.L.T.S.H.T.~.H.T.U.H.L.oX=.9 z z n C a u y a n n C U Y C ",
"L.Y.`.`.`.K.^.`.U.|.|.'.`.`.OX`. .S / / W W Q W W W / | | / O./ c.XX~.H.H.H.L.G.Y.H.U.H.H.~.~.oX#.> u y u u a a a p p l p l l B ",
"^.Y.K.`.Y.`.Y.`.Y.'.|.'.`.Y.`.K./ A Z S A R S S Z Z z z Z m A V f.OXT.H.~.H.~.~.H.U.T.H.H.~.H.R.>.t p l l p p p p l p p l l k p ",
"I.Y.`.Y.^.K.^.^.L.Y.U.U.Y.U.Y.I.Z t h h t t t h u t 9 h h h m h c.OX~.H.~.L.{.T.H.Y.U.H.~.U.~.R.5.T ! ~ ! ~ T U n u e 1 e e y y ",
"K.Y.L.Y.`.Y.Y.Y.'.L.'.L.Y.I.XX^.A m A A N A Z m m m A W R R | W f.OX~.H.H.H.XX{.U.Y.U.Y.|.H.H.R.,.M Y U Y T ~ T E Y U C i p y e ",
"K.I.K.I.^.K.^.[.Y.Y.Y.U.Y.U.Y.L.W A S R Q R S C V m Z A A A W N c.OXH.H.H.~.XXXX{.U.Y.H.U.H.H.R.>.x U U G U E T T n a i i l C n ",
"[.[.Y.Y.Y.I.Y.Y.'.^.U.U.I.I.U.K.S h j h j N M N N R R / / ' ' / g.P.G.L.H.~.T.XXXXH.I.H.H.Y.H.R.&.a U T ~ ~ ~ ~ ~ E n 2 u i l l ",
"[.Y.Y.K.Y.I.I.K.I.^.U.I.I.I.Y.H.' R ^ W / _ / _ / ^ / E E ^ _ S f.|.L.H.H.XX|.XXXXU.Y.Y.H.Y.H.R.$.: r u M U C G U C U U n i u e ",
"[.^.Y.Y.K.^.Y.Y.Y.'.'.Y.I.I.Y.H.' / / ' +.+.+.+.+./ E R S Z V h f.OX{.H.~.XXXXXXXXU.H.H.G.H.H.R.$.2 u a i a u a p i n i n n n n ",
"[.`.Y.L.Y.Y.^.Y.Y.^.`.Y.I.I.I.H.| ^ / ^ R A N N N m h 3 u l m m l.$X^.H.(.|.T.{.OX{.H.H.U.H.H.R.#.- a u u r 2 2 a i i p i n n M ",
"Y.Q.K.P.C.P.I.K.L.Y.Y.L.H.H.H.K.' A S N Z h 3 V E ^ ^ / _ ~ E / x.|.L.G.^.L.|.L.H.~.H.A.G.H.H.T.#.: r u p n a p p C i p i i i a ",
"%XOXOX+XOXR.OXOXOX].OXOXT.oXOXI.W j v v s 3 , 2 m J E ' -.-.] @.F.%XOX`.%XOXT.R.oX%XXXT.T.T.U.&XX.. % $ $ * y p p p p p r 8 a a ",
"d.u.r.u.t.t.r.u.r.t.u.u.t.i.i.u.3.=.=.=.*.*.*.#.=.3.>.>.>.5.6.w.q.y.r.0.q.y.w.w.e.y.q.y.t.r.y.t.<.X.o...o.{ { { o.{ { { { { { o.",
"E E ~ ~ ~ ! ~ ! ~ ) ) ( ~ ~ E E #X:X+X'.-X:X:X+X+X:X+X#X=X].#X#XS < 6 , 3 9 s x v x d d x x d 7 r.R.P.P.I.I.OXOXOXL.P.`.OX`.Y.`.",
"O.~ ~ ~ ~ T T T Y Y T Y Y K Y W !._.].Q.+X@X#X[./.].`.+XK.N.+X@XR < s s d x v N N N b N H H P H r.G.B.N.G.N.P.K.G.G.m.C.Y.C.G.L.",
"Q T E Q Y G G M M U M Y J J J Q ).*X+X+X+X*X$X+X$X+X/.$XY.C.*X*X/ s g g v v b g N b b H J H L b e.I.N.N.G.N.G.H.P.G.B.m.I.C.K.Y.",
"W U Q Q E Y T Y Y G J J Y K K Q ).$X+X].+X*X@X].$X$XQ.$X+XI._.`./ g g g H H H b b b b b b b b j e.I.N.N.G.S.G.P.G.P.K.B.C.C.^.K.",
"Y Y E ~ E T U T E T J J J G M R _.*X_.$X$X*X$X+X+X+X^.+X+XK.K.Y.( s s d g d d d d b P P H b b j 9.P.N.G.C.B.P.G.G.G.G.G.n.G.Y.K.",
"Y Q ~ ~ ~ Q E E Y G J J J J J _ ).*X+X/._.*X*X].+X+X/.+X+XY.Q.Y._ 6 7 7 s v v N H b M b b x J N e.Y.C.C.N.B.C.G.G.K.H.H.C.K.`.^.",
"~ Q Q Q Q E Y M M L E G M J ~ W !.*X$X$X+X$X$X/.$X]./.+X+XK.L.P.^ # 6 s s s s x b v v d j d N j 7.I.C.P.D.N.P.P.P.G.H.'.K.L.^.K.",
"A Q Q Q M m M M T K x n G E G S ).*X/.+X/.+X].].$X`.Q.].`.B.C.L.N @ # 4 < s s s v d x d s s j < 8.I.C.C.N.N.B.G.G.P.K.Y.I.K.`.Q.",
"Y _ Q Y j m J ~ ~ E v J ~ ) K W _.;X}.{.].+XXX(.}.^.^.+X].C.Q.L.N o o + , < # < 6 6 6 s s s s O 8.P.N.S.N.N.m.S.S.G.L.L.L.L.L.Q.",
"E Y Y E E M m M J T E J J K E _ ).;X*X'.].+X^.^.(.(.L.{.Y.K.].L.j . o X o , s s s 6 0 d s d d @ 7.P.N.S.G.D.m.S.G.G.H.L.L.L.^.L.",
"_ _ ~ E Y E T Y Y G M G J Y Y E _.;X}.].].+X(.^.^.^.H.(.K.Q.Y.L.A , 6 s s s s s s 4 7 d d b b 3 9.P.N.G.S.P.N.N.G.G.I.L.^.L.L.L.",
"T Y Y T T E T ~ ~ ! ( ~ E E T W ).;X}.^.].+X].^.^.^.L.(.K.`.`.L.^ # 4 4 6 6 6 6 s 6 < 9 6 s d < 9.P.N.N.G.G.N.B.G.G.L.H.L.Q.L.L.",
"W E T E T Q E T K E E E ~ ~ ! Q _.=X#X^.H.{.^.^.L.^.K.^.K.$X].Q.R 4 8 < 6 6 9 6 6 < + # 4 4 9 - 9.P.N.S.S.G.S.B.G.G.H.H.L.L.L.J.",
"Q ~ ~ ! ~ O.~ ` _ Q ~ ~ Q ~ E | J.#X}.L.G.^.^.L.K.H.H.L.C.K.K.K.m ; < < # < 3 s < < , , < < 8 < 9.D.N.G.S.P.G.N.G.G.G.G.L.L.G.J.",
"Y Y E Y U T U T T T K K T ! E Q {.$X$X$XXX|.XXXX+XXX'.P.K.C.`.`.n O X X + - + < < + + X @ ; 4 - 9.P.S.D.G.I.G.N.S.G.I.H.U.U.I.L.",
"<.,.>.>.>.;.1.1.=.$.$.$.$.&.$.$.l.Z.v.x.z.l.x.v.z.z.z.g.z.j.z.z./ l V D S A A A A C C V S A S D 9.M.j.n.j.j.j.a.j.n.x.z.z.z.j.g.",
"*X=X#X$X#X$X$XXX+X{.^.}.{.^.XXJ.O.~ O.~ ~ ~ ~ O.~ ~ ! O.~ ! T Y Z.=X{.{.{./.}.L.D.G.~.H.T.XX{.%X3.` [ ] [ ] ` ` ` ` ` ` ( ( / Q ",
"$X}.$X{.}.XX{.{.+XL.G.L.T.^.XXG.` ! ) ~ ) ` ` ! ` ` ! ~ ! ~ ~ ~ x.{.K.K.L.L._.L.D.H.G.S.H.~.~.OX%.H L L I ! ) ( ) ( I ! ( ! E ( ",
"}.}.{.^.#X|.~.|.XX^.L.G.^.{.'.F.~ I I T T U K K T T K K U U U U v.{.L.L.Q.K.^.L.D.H.L.D.G.H.H.|.-.F P N P J J P E ! ( ( ( ~ ( ( ",
"}.$X{.^.#XXXL.|.{.^.L.L.L.{.U.J.~ ! ! ~ ) ) ! ! ! I ! ! ! I I W Z.}.{.~.^.K.L.^.G.H.~.G.H.Y.H.U.:.F N b J M b b b b b J K K E E ",
"$X{.{.}.}.$X^.|.(.XXG.L.'.L.'.K.` ! ~ ! K T T T K F U K J J T T b.#X}.{.XXL.L.L.H.H.L.H.H.L.G.T.@.x b J P H J b b M c b b M G G ",
"XX}.{.{.}.+X{.{.^.}.U.(.^.L.U.J.T K K K T K ! T T U U K T ! K T Z.*X/._.(.}.^.L.~.~.L.~.H.L.H.|.&.x v b b J J H P J H J P J J J ",
"}.}.$X{.}.}.{.{.^.].'.XX(.K.L.J.I I ! ! ) ) ) ! ! ! I K J I I T E.*X*X}.}.*X}.}.}.{.L.H.~.U.L.OX@.c J N N J N J N H M J J J J J ",
"$X}.}.{.XX{.^.XX|.{.^.^.+XH.|.J.! I I I I T I K I ) ! F F F F T E.#X}.*X}.}.*X*X}.{.{.~.~.~.L.OX&.b E P J J J Y N N J H M N J J ",
"XX}.}.~.{.~.^.}.(.].(.'.{.^.^.J.I F F w U w w i x n K K q c w J W.#X}.}.+X_.+X#X_.+X_.].(.+XL.XX@.x J b P J K Y P J J J P J T J ",
"{.}.{.L.XX{.~.{./.^.^.^.{.L.^.F.F 5 5 w 8 w G T T U c F 4 0 F U Z.#X^._._._.+X+X}.+X_.+XXX}.(.OX/ 9 j j x v b M M J J J J T N Y ",
"|.}.{.{.{.{.{.{.].L.L.(.{.L.T.V.w - 5 ; 5 f T ! G w 0 w ; 7 c U W.$XL.Q.+X}.$X$X+X/.]._.XX{.^.OX@.x v x x x x x x v v v M N N P ",
"{.{.{.{.{.^.{.{.(.L.^.K.K.^.^.F.w ; ; - 7 c ! ! F 5 < q 5 w w c b.*X_./._._.$X_._./.^.].{.{.^.XX-.b K G P Y J J N M M m j n j m ",
"XXXX{.}.{.{.{.{.^.L.L.K.K.^.'.V.5 # ; % 0 G ! K 5 X 4 7 q w 7 i V.*X_._.+X_._.$X`.]./._.+X(.'.XX@.c J b J J P P L ! P L E P P E ",
"(.{.{.{.L.L.^.^.^.L.F.L.I.^.'.F.x ; 7 < i G G q X 4 q w f f 7 v b.*X/._._._._.+XQ./.^.(././.XXXX-.P E J J J H J P ! ! ( E ! ! ( ",
"{.}.$XXXL.(.{.{.{.U.'.U.^.^.`.F.J 5 w K b M K w @ q q w q 7 w n V.*X_.$X$X#X_.+X+X+X^.+X$X+X+X#X$.M L P L I E L L K J K F J J J ",
"J.Q.Q.J.K.L.L.J.K.J.L.K.K.K.G.V.T K c L ` [ ! G w f c w 0 i w n b._.Q.Q.W.C.V._.(.Q.K.J.!.K.W.^.$.M R N A A R E Q / Q E W W A W ",
"@.@.@.@.%.] %.] %.-.[ [ ] [ [ &.z.M.k.j.M.M.M.x.x.M.x.x.n.z.z.n.&.W / | / / +./ | / O.+.&.;.:.-.f.Q.J.J.F.b.b.v.V.J.W.W.!.!.!.).",
"/ E E ` ] ( _ ] [ ] [ ) ( ^ L / G.G.S.G.G.J.G.G.G.G.S.S.G.N.G.N.' R ^ _ R _ _ ^ ^ ^ _ ^ ( ( ( J g.XX^.U.G.H.G.P.H.^.]./.$X+X$X$X",
"+.' _ ' ' ] ' _ / ^ ^ ( [ [ [ ] M.G.S.S.G.G.S.S.N.N.B.N.M.N.N.m.^ Y P N Y P E ^ ^ P J J T P P N d.|.L.K.F.G.G.G.K.L.Q.(.$X_._.*X",
"E E / E ^ ^ ^ ^ _ _ ( I P N P ' B.G.S.S.G.S.S.G.G.G.M.N.G.N.N.M.^ N H N N N P R H R J P J J J s d.|.L.G.G.G.S.G.K.L.^.(._.}._.#X",
"Z N N S N N Z N N P ^ [ ( P g ^ S.G.N.G.G.F.S.N.C.N.M.N.C.N.N.B.^ b v v j n b v N b N H P P P J d.'.L.J.G.G.G.K.K.^.K.].$X$X*X$X",
"E R R [ ] _ ^ P A N g P ^ ^ P / S.G.S.G.G.G.N.G.S.G.M.M.N.M.B.m.^ H P P P P J T ^ ! L ^ L P I b i.Y.G.G.G.G.F.G.^.K.^.+X*X$X+X+X",
"/ E m _ [ ] I N N v N ( ' ( P / M.G.S.N.S.G.M.B.N.G.M.M.m.m.m.m.P s b b N K P P H H H b b Y N s d.Y.A.G.S.G.G.L.^.K.^.].+X+X/.+X",
"^ ^ R R P N N N A ^ ) ^ ^ ^ ( ' M.G.S.N.S.F.B.M.N.C.N.N.N.B.M.n.R x v N b b N b N H L H H P v s g.U.S.G.G.G.L.J.K.^.K./.+X]._./.",
"^ N ^ N N ^ ^ [ ] ( ^ ( ( ' [ ] A.S.S.A.S.G.A.G.A.A.m.A.A.S.S.s.Y g N N H H P H H P H g g c s j i.Y.G.G.G.G.G.K.Q.^.^.^./.^.K.G.",
"S ^ ( ( [ ( ) ' ] ( [ ) ] ] ' ] A.G.S.B.N.S.B.G.A.A.A.m.s.s.s.s.P g b v b H H b v s s s s s s s i.H.G.G.J.K.G.J.L.L.K.G.K.Q././.",
"[ -.( ( ^ ( ^ ( ^ ^ ' ' ' ] ' ] A.S.A.A.S.G.B.M.m.m.A.s.m.A.B.s.R b J P b b v s s s s x x b b x d.H.F.G.J.G.K.G.K.K.L.K.K.K.K.K.",
"' ' ' ' ^ ' ' ( ( ] ^ ( ^ ^ ^ ' A.S.B.m.B.M.B.M.A.B.m.s.A.s.s.s.N n v v b n b v j x v b b N H N g.H.J.G.G.H.F.K.G.K.J.G.G.G.G.V.",
"^ ^ ' ' ^ ' ^ ^ ( ( ' ] ] ] %.-.M.S.B.m.B.M.M.M.B.B.M.B.A.m.s.p.Y m N N v b H b v d v v b N N N g.Y.G.G.G.K.G.L.K.K.G.C.C.V.G.S.",
"' ' ' ' ' ] ] [ -.-.-.:.-.-.%.2.A.M.A.M.F.F.A.B.B.B.M.M.k.m.s.a.P Y P P L P b v s x b v v b N v i.Y.J.G.F.K.F.G.J.F.G.G.G.G.F.G.",
"-.%.%.-.-.%.-.-.-.-.] ] %.%.[ 2.A.B.M.M.B.G.M.M.M.M.m.m.m.m.A.a.( P P b d x d v m b v b v b N N p.H.S.G.G.F.G.G.G.F.G.G.G.G.G.F.",
"] ' ' ' ' ' ' ^ ' ' ' ^ ' ' S ' A.M.M.M.B.M.M.M.M.M.A.M.m.m.m.a.N b N N N R b N N N N A P P Y R c.H.J.F.G.F.G.V.G.F.V.S.V.V.G.M."
};
