/* XPM */
static char *_d6fada010294af0ac2343bc4a7b76fbuycmcu4jMojH9ZTx[] = {
/* columns rows colors chars-per-pixel */
"64 64 18 1 ",
"  c #90969D",
". c #939AA2",
"X c #93989F",
"o c #878D94",
"O c #8F939A",
"+ c #90989F",
"@ c #898F97",
"# c #8D959C",
"$ c #8B9198",
"% c #8C939A",
"& c #989FA7",
"* c #838990",
"= c #8D79A1",
"- c #7D838A",
"; c #8D57A8",
": c #666A70",
"> c #3D4249",
", c #070C19",
/* pixels */
" @@ $$.%$oX  O$$ .$ @O @@@$  %@$XX O$$$O $ oX$@ $XXXo$$ o%..%o$.",
" $$ O%+%OX X $ O$.OOo@  oooO O$$    %$OOOX$ .o  OX  OXO$$#. #o%+",
"O%$ X.&+O& . O  O&X @$ X#@@%XX O OO%%$O $$    O.O  X X $$O.O+@++",
"XXO X..%O ..X.@ OX%$$OOO+%o=@%O=OO$=@%O  $XO$$o O   O OO$OXOO$  ",
"% OOXXX$OO. . o$$@@$ X  +#%=;@$=O=====# OO@@%* $$$$$O  $OX X$$o@",
"o@@  X.X X  X*$@OoO X  XO+. ;;O=O;=#@;$$@*@*$o.+o@ $    $ $ o@o@",
"#% .%$XOO   O*$O -$ O@$O$#++=;=;$;@$%;@@ o.@@@@#*$XO $XX%$o %%@#",
"#$ .$oXO$$X.o$@X.-@  $OOO + =@;;@;=$%;O%%  .%o %$$ $ OX .#%+.+ .",
"   @$XX %.&+o o@$@O @o$++ %== =;%====;++&#. o. @+#+&.+&..&.@%.%#",
"%O %OXO$o..#oX $o*o@@@o*$%$@= .=$%===O%$.++%o. +@o%&...@o%#oo%oo",
"%%   X%$@+ #$ O@@oooo$$o% %%%% $#++##%$%o%#  +o%%$%++++oo% %%#$#",
" $OO  OX++$++$$@oooooo$oo%%%%%+  X  O$$ %#$%@%@#%   %%.#@# %%##+",
" $$$$$$X+ $+.% O$ooOOO$o$%% #% +O   X O .%$+@#+#o%#+ #. @$$@o@##",
"O@$@ooo #+ %# X$#$% %$$O++#+ @O O OO    $o@X@#.$@%O XXXO@$@$@$ $",
"$@$@o@@O% .@$  @%%%@**$ # $%#OXX X#$% ##$$o$o@ %O %  %O @$ooo$O*",
"O$O$$$OX#%.$#  O##%oo$O@+.%$$OX  ..+++%@*X$ O$@ooOO O@$   @oo$ *",
" X$O%%X## ++ OO %+%%@#@@+#%%# ++  $ ##$ #%$%++##%%% #%$%#+#oo%#$",
"O $% #X%# + %$%O##@$@%@%%$@@%   X O+  @%%  ++%@%%%   %$$@% + %%#",
" X# +++#####%$% #%o%$$@  O$o$ X .. +  $#@OO  %@$%#+.X %#+%%#++..",
" ++ +++  ####O X##$#%#%+X O$OXXO.. X++$%@@@$ O@o%#X..  + +++.&.#",
"##+## +.+%% +  X%+%%$ #+XX O X $$OOX+ ooOO$O  $$%#+.X # #..+####",
"$$#%%++.X#%+X OO#X%$@ # X O   O$$ O   $%O    ##+   + #%# %$%@@%.",
"%$#%#.#  # .XO$O%+%%$%$#+#%# %%# X  #+ .%### ##.+       %oo#+ ##",
"+%+# .%%%%+..O$ %#%X %o$. #+ %%+oO . +$%.+##++## %$%#  ++++#%###",
"-$.+%*$%%..#$OXX . %#%@## +++.++OO$@ %oO.+%%%%+#O$O%##+%  #+. $%",
"####X$++##%$#X %#.+##%@#.+#%#+.+@O%%++$O@  #@@ %O*$ +@oo$#   %$%",
" %%%#o + #%%##%$#+#%%$%+.+#%#++#$%#$+.%Oo@$$o*$@$*o% o*-*% %%%%%",
"+++++@##++#%$@oo##%$@% .++ #  #$%#%@% $% %@O$@O O@$$ ##o@ ......",
"@$@o%@@*.#@o@@o*#%#%$% +# ++ #%@#%%@$%@%%$oooo%$O@$@# X #+....+.",
"@# $%$ @%O@oo%%%%% +###$# +#%%%%%$#OO%$#$XXO@O.%$*@% $ X#%%# $@%",
"o#+%$oOO@  @@%  #$#+  #@# #%%###%$XO$ # @  #%#.% @#+.% X#+ ##%$#",
"+ ##X$ $O Oo$+ o#@% #++%###%# ##%#.$o   +%@+. +  % % % $%++## # ",
" #$@$OOXXX ++++@o%+...++#%@%O#+.%&%+@%$OX$ooX% %X$%X$ #+XOX.@  +",
" #$@$$OX&.#++.&.##% + +#&+@o$#%o+%#&+o%oo    $+.%%.%% .%O$ X +%#",
". %%O$$ &.+.++&#%#%..+. +.&.&&.@&..&. &%o    ..+  &%# +$.XXOX @$",
"%$@$%oo@.+ .%%#**##..##o&&&+%+#@X&%$##.+O *@#&. +%%X#+@# o@o X&&",
"+ #++##..&.+%# *-@%%$%+%%+ @$.&+.&@+## .  *@%...#oo## @ +*@oo@X ",
"@@oo@@%+.&.+  %--oOo*$X.#.&.+.+O.Xo -o #  @#....#@%@+ %%o-o@@$OO",
"$%@o$%# %+##+$*-$$ o*o*$%+.+# +.&.% *o.%++%#&&.@# .@++%$%$@$%$*o",
"%++## #%..%#.+#..O.  .@ ++.&&+@*+%o +**@#+#@+#$-o##  .$  .ooOO- ",
"##%@# %$.&#..%%X+%oo @%#+ #.+%#$o%#o*-*--+## %#%#%@@OX..#X% ooo$",
"#+#% +  &+.%.+*o$-  O$&.@#...+++##%ooo %+.++# $%#%$% XXX X . %#.",
"# #%### .+#@ @@--o@O$@o% %%$# o-.o* .**++%++.&+%+       .....@%#",
"# #%#%%%%.o%o@ o* *o %%###+##.#+%#$ . ##@&.&&+.+     OXX  ..&+.+",
" +  X+%##%+%oX$ X@Oo&.&X..+++%%. .$%+++  #&:-&%.   O$o*oO  %.+.@",
"%#%#X+# . X$  %o @ %$$:-##o%.##++@*%%oo%*@O,>&.$-*oOO$$O$O$@$@@*",
"$$$$#%% +.$$X$ o$.$ @->:&&&&&o% o@*@o#+%oO$-o*XXOO  Oo*o@$@O%@%%",
"%%%%%%%... OO.$.&.%+&--o.&$ .$ @+%o%o%+#  O.XO.o OOOO@$O$$oX$o@+",
"*$ O@@$$.X $   Oo&X%&+%&&&+#%# + $#@o #%@#+..oO$$*O.O$O$Oo@$o$$$",
"$$$@$OOOOOOO $@o$$ X..&.+..++ +.+% %$ ##o#&&.#$@$*$ $$$$ @$$o$@$",
"O@oo@O O@$$OO@**Ooo$o#.$#.#@##% +%##%## .+.o@#$o$o@$O$O  o$$ooo@",
"$$$$$@$%OO@O$o*oO $*$ # #.$*%#@% %#+#%#  # oo#o*$$o$   . o@$$$@O",
"++++#o@% O@Ooo*$-OO*o**Xo. $  %++#+. # +$+ #$$O$o$o@ X . $%OXX .",
" ###%$@%$$@$$$oO $oo . o$ $o +#+++ + #+##.$ $@#%$O$$XXX..XX X.O ",
"%%%#####$O$$O$$$ OX **OOXO**O+## +# #%+%%#$   $o XX XXXX .. XX$#",
"#.&&.+++  O@ OO$ O XOOO$#$$O ++ +.# ##.% OOoo.+&... ####o X X.+.",
"$  ..#XOOOO$$$$OO$@$O$$O##++++++.+##..+#  $%%.  +.+##%@%@@+ %.$ ",
"%O$##@ O O$$O   $@@$OO  % #%%+.+++##++## +#+#...#+.+++  o  #@+ $",
"X %++%+. $o$O$@@## #%$$#%+ @@+.++++ ++  #+++#+..  ++ ++##+%. @%#",
"#%%  %#+OOO  O$o% ++#% .#..%%+.#..++..  #  #%#+.XO #$#+#X %. o$ ",
"$o$##%$#$O     $% .+#% .# ++ ++ ..++.+#%#%%%##++ O  % .+$O $@@%$",
"#%#OO#%+@##%$%##+...#####%#+ ##+  %# #@@%$$$ #++O XX   %o@O$$@% ",
"#% $@O$####+#$%+%#+  +++ %# #%% $O$$%$o@O@$@O$  OXXX Ooo$o@XX*%X",
" #X$$O@$o*o++@o#%##%%%$@ # +#%@$o$OO%@@$$o$o$o$$$X   O@$@Oo X-  "
};
