/* XPM */
static char *_a7159a268834688cdfe5a629d3c957bZzRWVRFsTzIZW5SW[] = {
/* columns rows colors chars-per-pixel */
"64 64 186 2 ",
"   c #1B181A",
".  c #49494D",
"X  c #474750",
"o  c #64686E",
"O  c #6A6B6D",
"+  c #6A6D71",
"@  c #75797D",
"#  c #767B83",
"$  c #7B7E84",
"%  c #7C8187",
"&  c #7E838B",
"*  c #7E8590",
"=  c #82868C",
"-  c #84898E",
";  c #898C8E",
":  c #868C93",
">  c #898E95",
",  c #878F99",
"<  c #8A8F98",
"1  c #879097",
"2  c #8B9196",
"3  c #879099",
"4  c #8A9099",
"5  c #8B9099",
"6  c #8B9199",
"7  c #8A9098",
"8  c #8A9299",
"9  c #8B9299",
"0  c #8B9298",
"q  c #8B919A",
"w  c #8A919B",
"e  c #8A929A",
"r  c #8B929B",
"t  c #8B939B",
"y  c #8B939A",
"u  c #899098",
"i  c #8C9198",
"p  c #8C9099",
"a  c #8C9199",
"s  c #8D9199",
"d  c #8C9298",
"f  c #8D9298",
"g  c #8C9299",
"h  c #8D9299",
"j  c #8D9399",
"k  c #8E9298",
"l  c #8E9398",
"z  c #8E9399",
"x  c #8F9399",
"c  c #8C919A",
"v  c #8C919B",
"b  c #8D919A",
"n  c #8E919A",
"m  c #8C939A",
"M  c #8D939A",
"N  c #8C929B",
"B  c #8C939B",
"V  c #8D939B",
"C  c #8C929A",
"Z  c #8E929A",
"A  c #8E939A",
"S  c #8F939A",
"D  c #8E929B",
"F  c #8F929B",
"G  c #8E939B",
"H  c #8B949B",
"J  c #8F9498",
"K  c #8E9499",
"L  c #8F9499",
"P  c #8D949A",
"I  c #8D949B",
"U  c #8E949A",
"Y  c #8F949A",
"T  c #8F959A",
"R  c #8E949B",
"E  c #8F949B",
"W  c #8E959B",
"Q  c #8F959B",
"!  c #8E969B",
"~  c #8A939C",
"^  c #8B939C",
"/  c #8B939D",
"(  c #8D929C",
")  c #8C939C",
"_  c #8D939C",
"`  c #8C939D",
"'  c #8F929C",
"]  c #8E939C",
"[  c #8F939C",
"{  c #8B949C",
"}  c #8C949C",
"|  c #8D949C",
" . c #8C959D",
".. c #8E949C",
"X. c #8F949C",
"o. c #8E959C",
"O. c #8F959C",
"+. c #8E949D",
"@. c #8E959D",
"#. c #8F959D",
"$. c #8D969D",
"%. c #8E969C",
"&. c #8F969C",
"*. c #8E969D",
"=. c #8E979D",
"-. c #8D949E",
";. c #8D959E",
":. c #8E959E",
">. c #8F959E",
",. c #8D969E",
"<. c #8E969E",
"1. c #8F969E",
"2. c #8E979E",
"3. c #8F979E",
"4. c #8E979F",
"5. c #8F979F",
"6. c #8D939A",
"7. c #8F989E",
"8. c #919597",
"9. c #91949A",
"0. c #90959A",
"q. c #90959B",
"w. c #90969B",
"e. c #91969B",
"r. c #90949C",
"t. c #90959C",
"y. c #91959C",
"u. c #90959D",
"i. c #90969C",
"p. c #91969C",
"a. c #91979C",
"s. c #90969D",
"d. c #91969D",
"f. c #90979D",
"g. c #91979D",
"h. c #92979C",
"j. c #92979D",
"k. c #90969E",
"l. c #90979E",
"z. c #91979E",
"x. c #90979F",
"c. c #92979F",
"v. c #90969D",
"b. c #92989D",
"n. c #91989F",
"m. c #92989E",
"M. c #93989E",
"N. c #92989F",
"B. c #93989F",
"V. c #92999F",
"C. c #93999F",
"Z. c #91989E",
"A. c #8F96A0",
"S. c #8E98A0",
"D. c #8F98A0",
"F. c #9097A0",
"G. c #9097A0",
"H. c #9098A0",
"J. c #9198A0",
"K. c #9099A0",
"L. c #9199A0",
"P. c #9198A1",
"I. c #9398A0",
"U. c #9299A0",
"Y. c #9399A0",
"T. c #929BA1",
"R. c #9099A2",
"E. c #9199A2",
"W. c #919AA2",
"Q. c #929BA2",
"!. c #939BA2",
"~. c #929AA3",
"^. c #949AA0",
"/. c #949AA1",
"(. c #969BA1",
"). c #939CA3",
"_. c #959CA5",
"`. c #959DA5",
"'. c #979DA4",
"]. c #969EA6",
"[. c #979FA7",
"{. c #929AA2",
"}. c #989FA6",
"|. c #97A0A9",
" X c #99A3AC",
".X c #9DA8B0",
/* pixels */
"r.> > i > 6 r.2 > > R 7.i R 2 > 9.B.i 6 ; 2 l 2 : 2 1 2 r.< : > 9.y.r.i i > > i 9.2 i > i > > h i r.B.9.> ; 2 9.: 2 a.*.*.= 6 *.",
"6 > > r.h 2 r.i 2 B.2 R h i R 2 i r.B.h ; > i 2 2 % 1 2 h < F > 9.9.h h i i i 9.h i 2 l r.; 9.9.i C.R R R a.2 2 - B.'.9.r.: h A.",
"i 2 > R 7.B.`.R i B.B.'.R 2 r.h i `.r.: 6 : h B.R 1 > 2 r.r.h < h h > *.2 2 2 l > 2 6 W.U.> h j.i a.l l l a.9.2 i i a.2 *.: A.*.",
"r.R h *.9.U.U.> R a.7.B.B.B.: 9.r.r.> > 6 2 h > *.6 - : > ] < < r.h h *.2 2 0 a.2 h R h i > : r.l l a.l l i i 2 2 2 8.l h > ,.6 ",
"h 2 2 h h U.R 2 i 2 B.a.U.6 > i > : > h H 9.r.h 2 6 R *.6 6 h h ] 6 6 *.H H ,.2 6 h 2 : : = 2 6 : 2 > i i R l i h h r.F.: 6 : > ",
": > > i r.r.R B.R 2 B.9.*.: : ; > > > h r.h `.*.R H *.7.7.,.< h ] *.6 < R 6 2 : 6 = ; = 2 : R R - 2 l > i a.R R h > h ] : < - : ",
": *.h B.2 > 9.i H R l R 2 = > 9.A.* : 6 9.> : i i 2 R *.S.6 < 6 h > 6 6 > ^ , > 6 : H H - 2 : h - : B.> l 9.R 9.h > > *., : 3 ^ ",
"^ > r.S.: > r.2 6 ; B.B.- > i R A.$ > *.h > h 6 6 i U.,.^ h < < > h 2 > 6 ^ ,.6 6 ,.*.7.6 : *.6 2 2 R 2 2 i B.=.U.*.6 *.U.*.A.] ",
"] 6 *.: < *.] 9.6 U.].*.: h : : : < < F > : > ] ,.6 ,.,.7.H R 6 h *.6 > 6 7.H S.7.*.^ 6 : A.6 > *.i R ).U.*.|.U.U.).W.: , W., ] ",
"6 6 ] < < U.r.> : ,.U.r.> ] 9.: : = : : : : : > 6 H : 6 *.R R R 6 6 h *.R S.6 3 S.A.S.6 : U.*.*.: > i U.W.).7.2 : , ^ : : : , : ",
"h > *.r.6 *.< > 2 *.*.r.> > h > : > ; - > > - : 1 H 2 1 *.R R i 6 *.h A.6 : l 1 : : ^ *.> *.: h 6 6 > U.S.*.1 > : : 6 6 < 6 < h ",
"h h 6 h 2 ] h r.*.R R ] 2 R > < : > : ; > > > > : 0 6 6 > > R 9.R R *.r.2 2 2 0 6 ] : h > 6 : h 2 h h *.6 > B.H < 6 *.2 *.6 r.r.",
"h h : > 6 h < r.r.R > *.U.h > : i - i 2 0 l 1 - 2 2 2 1 9.R H *.h 9.l l B.R l l h 6 2 i 2 R ] ^ : > *.] H R B.R : < > : : h 2 h ",
"h : > : : - > h R *.*.6 h h R R 7.: 2 R 1 2 2 2 =.R *.H *.6 6 h i i 2 1 R 2 =.l 2 : 2 l : h A., : > ] *.9.R R 2 : > < < : > 6 h ",
"i > > 6 : : > R 2 6 B.; > *.R : 2 H H 1 = - 1 2 0 R 6 6 h 2 a.l h 7.B.2 R R R l : i - i : : ] ^ 6 < h i 9.R R 2 > > : - : 6 < = ",
"2 i > 2 ; 2 2 R R 6 B.h 2 R h 2 H H 1 : : ; 2 1 =.=.2 2 > 2 B.R R `.R R a.0 0 1 : l 2 i ] 3 : : : *.6 i R : : *.] ] > ; ; 1 6 = ",
"2 B.> 2 2 2 *.R R *.R *.,.6 0 0 H 2 2 1 : 2 1 : 8.0 1 0 H 2 a.R =.l 0 H l 0 R R H 6 2 2 ,.^ *.6 6 6 6 h R 2 2 h R *.2 > : 2 2 2 ",
"R i 2 H 2 *.B.2 2 R R ,.6 : l R R 2 2 H 1 2 : 2 0 0 2 - H H a.R a.l 2 8.=.a.- H 6 R h i *.^ 6 : h h *.R =.2 2 : ; > 6 R R h 2 2 ",
"R a.R R H 7.0 R H h R =.6 > i 9.h 2 : : 1 2 1 l 0 8.- 1 i R 7.l C.a.=.a.H H 0 2 > i *.R *.> : h > B.h B.B.2 2 =.R *.R R R R B.7.",
"2 7.2 R B.R R =.*.2 2 0 6 *.R 2 R 2 R 2 l l 2 =.B.=.l 1 l 9.l 9.a.a.2 R B.=.0 0 i - 2 > r.h > : 2 l R C.'.R l 7.R h R R ).).7.R ",
"R 6 7.R H B.*.*.R H 0 R R 9.=.=.2 =.0 0 l 0 8.0 a.a.8.1 =.9.l 2 i 8.2 a.=.l - - l 2 2 2 0 2 2 2 2 l (.=.a.=.8.0 R B.7.7.1 1 8.$.",
"1 2 *.1 : H 7.,.7.H 0 =.V.i 2 l l a.2 2 - 0 l b.=.l 0 0 a.a.i 2 2 2 l l 2 0 =.l l R a.2 R R 2 R =.R l =.l 2 0 R 0 R : l 0 ; 0 =.",
"2 : 6 6 *.7.7.H l 0 H V.7.i 2 2 l l 0 2 2 2 1 l a.=.0 l l > R 0 2 =.=.=.1 B.0 0 0 R 2 1 *.H 6 7.7.R l 8.=.=.l H H : : 0 0 0 =.0 ",
"R H H *.6 7.6 2 2 R =.V.R 2 2 l 0 =.0 $.8.0 - 2 =.R H R R 6 R *.; l l H V.=.1 R 7.l 0 B.H 7.3 0 l 0 2 2 2 2 V.$.H =.=.0 0 0 0 l ",
"= 1 7.*.2 - 2 2 0 =.=.l h 2 r.R 0 B.R 2 0 2 > l =.0 0 =.7.*.S.7.l 2 2 2 7.1 : i ).R 0 H 1 H *.6 2 2 2 2 R 2 *.H =.l R =.7.R 0 0 ",
"1 6 ,.*.R 1 $.7.H R 0 0 i R R 2 =.=.=.2 1 1 2 0 b.=.R 0 6 7.B.R 2 2 2 1 R =.2 2 : 2 R 2 : 2 H 6 l = 2 =.R 6 : = 1 l 0 l 0 2 2 2 ",
"*.h 1 H $.1 0 =.0 l 2 1 < i h > 0 =.2 i l : *.R 7.7.0 2 2 $.R l ; =.2 2 R =.2 l > > : 2 - = 6 : ; ; - 0 0 1 ; % = 0 =.H R 2 1 2 ",
"7.H 6 2 R 2 2 0 =.=.l 0 h : : - l R 2 > > 1 R 7.R R ,.H R R 1 0 l 0 2 1 0 0 0 2 h : > > 2 : 6 6 2 : 2 1 H 2 2 > ; =.7.R =.7.U.).",
": R 1 1 R - 2 = l $.: ; > , < - > R H > 2 *.H r.H R *.H *.] 1 2 i i 2 1 : R 2 2 > h > : = : 2 2 2 ; H : R *.R R *.h S.U.V.U.7.7.",
": 2 2 2 l 2 2 : 2 0 2 = > : 2 2 2 R 7.R *.6 > h h R R R > 6 2 6 i i 2 h 2 l > 6 < h *.> < r.h < 2 = > R H H R a.6 < *.6 R l : 6 ",
"1 R R R : = 0 2 1 l 0 2 : r.*.6 R : 0 R R 7.R : 6 *.h R 2 h 2 H 2 2 R i i R h *.> *.6 h h ] *.h *.6 R *.B.2 R r.*.h R H H : 2 h ",
"R 0 0 R R H R 2 0 2 2 : < *.*.: 2 2 2 =.6 *.6 R h *.6 1 R h R 6 6 R =.R - R R *.,.2 : U.r.] *.R H *.2 h R l i i i *.7.6 R R R 2 ",
"*.h h : : h 2 a.r.r.*.r.] ] *.< : h *.B.F.*.*.7.^ , 6 > 2 2 *.S.6 S.*.*.6 ; > 6 l 2 - > 9.0 R R *.2 l R 2 *.h *.9.h R *.R R 2 *.",
"*.6 h > i > 2 r.}.r.r.r.A.E._.*.] < 6 *.F.U.r.R A.A.: : 3 B.R : *.*.*.`.*.i : : > 2 R l i R R r.0 2 a.l h ] ] h i h R r.i i 6 2 ",
"U.6 2 h i 2 > R '.r.r.W.F.F.W.] > ^ 6 R U.*.B.2 S. XW.W.).S.6 H `.*.U.`.U.*.^.6 - a.2 a.l B.U.*.8.i '.l ] F.*.2 B.i R H ] U.6 6 ",
"R 2 2 2 2 > : 3 W.*.^ U., < h - : : U.U.7.6 B.: B.|.`.*.*.R H : r.'.: < ,.R *.S.R R % > R 7.7.R R l l 1 h *.> h R > 2 = A.6 U.U.",
"6 A.h 6 *.h *.R W.).A.^ *.6 > = % ; : 6 1 1 H H 6 7.S., 6 B.|.6 ).V.6 7.6 : R S.6 2 : 2 6 7.).U.R ; - B.9.2 2 H r.- - > : > ] A.",
"> : : : 3 , 6 *.U.S.U.r.h 6 *.% # 2 H : - l 0 7.H 7.).7.6 7.*.6 7.V.- R = : R R *.R : i *.).).7.2 : > 2 R R 2 2 : $ - > : i 2 < ",
"6 < > > : 6 > *.6 ,.H 6 H H : % 2 2 9.= = > - 2 H B.).H H 7.R B.|.'.$.1 = : R H U.*.2 l `.).*.2 R U.*.1 B.R 2 2 < < 6 - 6 : = ; ",
"6 *.*.h ,.*.6 6 A.*.3 *.7.*.2 B.7.2 C.V.2 B.: 2 R *.7.`.).$.2 = l 6 - =.R & - : 2 *.R 1 H H 1 & : 6 2 *.H ).2 R ] *.: : 6 6 = 6 ",
"R 6 2 6 6 7.1 6 ).).~ U.D.~ i 8.R 0 1 ; $.2 : 0 7.H H ).,.1 ,.: : 2 l : & & : @ & *.*.6 R 2 2 1 2 > 1 1 2 7.B.B.^ *.6 6 : : : 6 ",
",.H 6 6 H *.H H ).).).6 S.^ = > 1 - 0 l 2 2 =.7.1 H *.7.,.R B.B.6 R : , ; : 2 2 *.*.*.H R R 2 H R 2 2 2 l =.R B.B.*.7.U., R H H ",
"2 H *.6 R R l R ).B.0 : ^ > : = = = 2 2 ; 1 : ! 1 H 2 2 6 7.= % 7.: : 6 ).& = *.R h *.U.D.).B.: 2 R 8.l l B.l a.B.B.R U.U.: 6 ,.",
"2 7.H : R > > h H H 1 : : 6 R - - 1 - - $.1 0 0 H ,.H 2 R a.H R 2 6 > 2 *.7.$.R H *.W.|. XS.B.B.=.7.b.2 a.2 9.a.a.B.B.7.U.U.S.,.",
"=.B.R =.B.7.R 2 6 2 *.R : *.2 R 8.2 2 ; T.T.V.T.S.*.*.R R R : '.U.R 2 R B.7.1 0 2 7.).o # ).*.B.l 2 2 8.2 = ; ; > R h h U.*.R h ",
"l 2 2 R 9.l H $.7.B.2 2 2 *.2 : 2 2 2 2 1 ; + @ *.H : B.r.6 S.r.2 2 & : 2 : 1 2 & : 2   X `.B.< & : : 2 i 2 2 i 2 > : > < : > & ",
"2 1 : 0 l 2 =.H 7.B.0 0 B.: R ; 0 V.0 2 0 = . O B..X*.^.U.> 6 R > : = 6 - l H 2 : 2 > % & : *.] 2 2 l 2 2 ; - ; > > 3 6 : 3 R 2 ",
"2 0 R 2 2 2 H =.a.a.R l 2 B.l =.).B.0 8.).& % ; `.|.^ R U.6 6 , *.6 : : - 9.1 R 2 R 2 U.A.*.< > 2 0 l R 2 i ; 2 > > : 6 6 : : R ",
"= 6 2 2 > : 2 2 V.B.9.> 9.B.9.6 > ^.j.r.'.7.6  X|.U.*.: *.6 r.*.R , h : > 6 2 H : ^ A.D.B.6 i ; > ; h R l 2 l > 2 ; : : > > < > ",
"2 : 2 : : 2 2 > 1 2 > l R - > : < > < r.h U.`.S.*.S.U.A.r.r.*.U.*.6 *.6 > *.*.2 - ^ ).).W.> > i > = > r.9.- i > 2 : k > > > : > ",
"2 > - ; 2 2 2 R > l i i h : ; = h > > > 6 r.*.h 2 ,.,., > 2 R h r.h i R > *.2 R A.A.).: : A.; : i > ; 2 2 2 i 9.R : : : : = : : ",
"> i i : 2 = i i > 2 > : i : % : > r.> : : r.h r.*.7.3 : 2 2 > 6 *.> r.r.*.: 9.r.6 6 ^ * ~ 3 : = > > : > l 2 i B.2 > h > > < > < ",
"7.R r.R *.6 > 2 h 6 6 6 > : - > = > > - : = > h : 7.R : H *.6 *.] r.*.9.*.h R R *.*.*.A.: : H > ; : h > 0 B.9.=.j.: < < F G.A.F.",
"2 R 2 h 6 > : 2 h h : > > ; ; > < h > - 8.8.8.; > R H = h r.] ] r.9.R R *.H R R h *.h h 2 2 2 > i > > 6 9.a.R B.I.F.r.F.r.r.< A.",
"2 H 2 *.*.6 2 R > > h : 2 i 6 h ] 9.i j.= ; > 8.*.H & > r.r.*.^ *.R R 9.R 6 2 R 2 h h > 2 R i : R r.A.*.*.r.B.9.r.j.] *.*.A.< < ",
"H 7.^.U.S.S.7.R 9.h 2 > r.i i 2 h i 9.y.2 8.> i h l : 2 9.r.*.*.R *.l R R *.*.i R r.> > > B.7.).B.B.U.h R 2 2 2 ; 9.F.] A.A.F.F.",
"6 h *.7.7.*.R h h h < : h > 2 h 6 6 ; > i > i h h *.*.*.r.h *.F.R *.6 R 7.7.*.R H H 2 i 2 B.R *.*.).7.6 ] ^ : < : > r.*.h *.*.] ",
"< h 2 R ,.6 6 6 > h ] < h < 9.2 > > : > R h h 6 h ,.*.3 9.R F.*.*.^ 6 6 H B.*.6 R R R R R R =.V.*.*.S.*.A.*.,.^ > < ] 6 < *.] h ",
"*.h *.6 *.6 r.U.] > : : 2 < > > ] ] ] h > : *.] 6 *.*.: : B.F.r.A.,.H *.B.*.R R H *.R R l R ).V.h R ] A.*.^ *.6 < F.] *.A.6 < h ",
"6 6 : R R 6 H r.] 6 h ^ *.< > : , ] 6 *.*.6 *.] 6 *.*.6 2 R ] ] A.U.*.*.7.*.R *.H ,.6 *.2 R R R R r.h 6 6 ^ A.*.A.r.^ ] ] - : *.",
": 6 : *.h 6 h 6 > i h *.6 6 H , < *.U.*.*.6 2 S.*.*.7.,.r.F.h *.B.R 7.S.B.R *.6 2 : H ^ R i R B.i 9.R R < r.U.*.> < r.< < : < < ",
"*.h h > : *.6 *.6 < ] ] , ] *.6 ^ F.A.S.6 h R *.6 H 3 *.r.< *.*.7.R 6 2 R 6 3 : 6 6 6 : i l a.B.i 9.R *.h F.6 > > - h < > > < ] ",
"^ : *.< > 6 6 6 3 *.h h h > 6 *.6 6 F.*.6 *.*.6 6 H H *.] < *.] : 2 2 > 6 : , : h : ; > R : 9.2 i a.B.=.9.> k : > > - A.A.= < ^ ",
"] ] r.h > < , < : = > F.*.: > 6 6 ^ 6 ^ > 2 2 > *.*.6 7.h < > > ; 2 R 2 2 2 : 1 > 2 ; ; 2 - i 2 2 R 9.=.8.k ; : > > > *.] % ] ] "
};
